# xmcd CD database file
#
# Track frame offsets:
#	150
#	19009
#	33515
#	50345
#	70452
#	84469
#	104876
#	122350
#	138558
#	155971
#	173378
#	190414
#	203416
#	218799
#	232238
#	248753
#	269303
#	286973
#	306106
#	322279
#
# Disc length: 4508 seconds
#
# Revision: 0
# Processed by: cddbd v1.5.2PL0 Copyright (c) Steve Scherf et al.
# Submitted via: ACXtractor (MTCDDB.DLL V2003.07.15)
#
DISCID=2c119a14
DTITLE=Graham Rodger - A Gypsy's Life
DYEAR=2006
DGENRE=Country
TTITLE0=Where the Cooper Flows
TTITLE1=A Gypsy's Life
TTITLE2=This Old Guitar of Mine
TTITLE3=The Matilda Highway
TTITLE4=Tonesie
TTITLE5=Beyond the Dream
TTITLE6=Trucks are in my Blood
TTITLE7=Huts of the High Country
TTITLE8=B&S Ball
TTITLE9=It's All in the Game
TTITLE10=Santa's New Rig
TTITLE11=Country Town
TTITLE12=Australia
TTITLE13=Shindig at the Glenreach Pub
TTITLE14=True Blue Country
TTITLE15=Daddy's Little Girl was a Truckie
TTITLE16=I Never Meant to Hurt You
TTITLE17=Let our Hearts Lead the Way
TTITLE18=Why do we Write
TTITLE19=The Night I Saved John Wayne
EXTD=ID3G:   2 YEAR: 2006
EXTT0=
EXTT1=
EXTT2=
EXTT3=
EXTT4=
EXTT5=
EXTT6=
EXTT7=
EXTT8=
EXTT9=
EXTT10=
EXTT11=
EXTT12=
EXTT13=
EXTT14=
EXTT15=
EXTT16=
EXTT17=
EXTT18=
EXTT19=
PLAYORDER=
